# xmcd
#
# Track frame offsets:
#	150
#	19890
#	46834
#	66667
#	93046
#	114294
#	134098
#	159626
#	203459
#	235784
#	267107
#
# Disc length: 3681 seconds
#
# Revision: 0
# Processed by: cddbd v1.4PL0 Copyright (c) Steve Scherf et al.
# Submitted via: audiograbber 1.80.04
#
DISCID=8f0e5f0b
DTITLE=Copenhagen Gospel Festival - LIVE i Cirkusbygningen 2001
DYEAR=2001
DGENRE=Gospel
TTITLE0=Leave it there
TTITLE1=Christ is all
TTITLE2=Total Praise
TTITLE3=Lord of All
TTITLE4=I will lift up mine eyes to the hill
TTITLE5=My Soul is satisfied
TTITLE6=Amen - This little light
TTITLE7=Medley (True praises, This is the place, Acceptable)
TTITLE8=Marvelous
TTITLE9=Solid Rock (My Hope is built)
TTITLE10=Data Track
EXTD=
EXTT0=
EXTT1=
EXTT2=
EXTT3=
EXTT4=
EXTT5=
EXTT6=
EXTT7=
EXTT8=
EXTT9=
EXTT10=
PLAYORDER=
